<svg xmlns="http://www.w3.org/2000/svg" width="800" height="800" viewBox="0 0 800 800" fill="none"><g clip-path="url(#clip0_2_76)">
<rect width="800" height="800" rx="164" fill="white"></rect>
<path d="M179.4 70.2667C179.933 71.6 184.333 84.4 189.4 98.6667C207.533 150.667 207.133 149.6 210.2 150.8C211.933 151.333 217.4 151.467 222.467 151.067C228.333 150.533 232.067 150.8 232.6 151.733C233 152.533 231 156 227.933 159.467C213.667 176 199.667 205.467 192.333 234.4C189.133 247.333 188.733 250.933 188.733 274C188.733 302.133 189.533 306.667 197.667 331.6L203 348L199.667 353.6C197.933 356.8 193.667 364.133 190.333 370C183.667 381.733 174.467 403.6 171.267 415.733C162.733 447.2 161 460 161 488.667C161.133 519.067 164.067 536.8 173.8 566C191.933 620.533 224.867 663.467 272.867 694.933C321.933 727.2 385.133 739.867 442.733 728.933C454.333 726.667 478.6 719.867 487 716.4C497.933 711.867 522.2 699.067 531.933 692.8C583.667 658.933 623.4 597.867 634.733 534.667C639.533 508.267 640.733 488.667 638.867 469.333C634.867 425.2 622.467 388.4 599.8 352.267L597 347.867L602.467 331.6C609.533 310.533 612.067 295.733 612.067 274.667C612.067 244.533 606.2 220 592.067 191.333C587 181.067 579.533 168.267 575.4 162.933C571.4 157.6 568.067 152.533 568.067 151.867C568.067 150.933 572.6 150.533 580.2 150.8C590.467 151.2 592.467 150.8 593.533 148.933C595.533 145.467 621.267 68.8 620.733 68.2667C619.933 67.4667 583 89.7334 563.133 102.8C553.4 109.2 543 116 539.8 117.867L534.067 121.2L527.4 116.133C506.867 100.667 477.533 87.4667 447.4 80.2667C433.8 77.0667 430.467 76.8 401.4 76.8C373.667 76.6667 368.467 77.0667 355.8 79.7333C327.533 85.7333 300.6 97.3334 274.333 114.8C270.067 117.733 265.933 120 265.133 120C264.2 120 256.067 115.067 246.867 108.933C237.667 102.8 224.333 94.2667 217.4 90C210.467 85.7333 202.6 80.9334 200.067 79.3334C193.533 75.2 180.333 68 179.267 68C178.867 68 178.867 69.0667 179.4 70.2667ZM434.2 98.6667C442.2 100.133 452.6 102.4 457.4 103.867C474.467 108.8 500.867 121.733 511.933 130.4L515.133 132.933L498.067 145.467C469.933 166.133 448.867 184.933 434.2 202.667C424.733 214 410.333 234.533 404.6 244.933C402.467 248.8 400.467 252 400.067 252C399.667 252 397.933 249.2 396.067 245.733C391 236 373.933 212.267 362.467 198.933C349 183.067 326.333 162.8 304.467 146.8C294.733 139.733 286.733 133.333 286.733 132.667C286.733 130.933 306.067 118.933 316.6 114C331.533 107.067 347 102.267 365.4 98.6667C383.533 95.2 415 95.2 434.2 98.6667ZM272.467 162.8C295.8 174.533 319.267 190.4 338.6 207.733C343.267 211.867 347.667 215.6 348.333 215.733C349 216 354.2 222.133 360.067 229.333C376.733 249.867 390.333 273.333 396.2 291.6C399 300.533 399.133 301.867 397.4 308.267C388.733 342.533 361 371.6 328.733 380.4C302.467 387.467 275.533 383.467 254.333 369.067C232.067 354.133 219.667 335.2 211.133 304C207.667 290.8 207.933 257.867 211.8 242.267C217.667 218.4 226.867 196.4 237.133 182C247 167.867 256.333 157.333 259 157.333C260.467 157.333 266.6 159.733 272.467 162.8ZM553.8 168.8C568.6 186.8 581.667 214.267 587.667 239.6C590.733 253.067 591.267 258.133 591.4 275.333C591.4 297.467 588.733 311.2 581.267 327.733C566.2 361.067 532.067 384 497.533 384C456.2 384 418.067 355.333 404.733 314.133C401.4 303.733 401.267 302.4 402.733 296C405.533 284.4 421.667 254 433.267 238.533C453 212.267 485.267 186 522.067 166C525.8 164 531.8 161.333 535.4 160C543.533 157.067 544.733 157.733 553.8 168.8ZM389.133 406.267C394.733 416 399.8 424 400.2 424C401.267 424 404.467 418.933 409 410.667C415.533 398.533 424.333 384.133 426.067 382.667C427.667 381.333 429.533 382 435.667 386.133C445.667 392.8 464.333 399.733 478.733 402.267C493.933 404.933 515.133 404 526.6 400.133C531.267 398.533 535.4 397.467 535.667 397.867C536.067 398.267 534.867 400.533 533 402.933C525.8 412.533 515.8 435.733 510.333 456C504.867 475.733 503.8 500.667 507.267 525.333C512.467 561.733 529 597.6 554.2 627.2C564.333 639.067 564.733 636.933 549.667 651.733C522.333 678.533 482.2 699.867 443.4 708.133C430.6 710.933 425.133 711.333 400.067 711.333C374.6 711.333 369.8 710.933 357.4 708.133C311.4 697.733 270.467 674.533 242.333 642.933L237.4 637.333L245.8 627.6C301.4 563.867 310.867 475.2 269.4 406C267.267 402.267 265.4 398.933 265.4 398.533C265.4 398.133 269.8 398.933 275.133 400.267C295.267 405.467 319.4 404.8 338.733 398.4C346.867 395.733 363.933 387.333 370.067 383.067C372.467 381.467 373 381.6 375.8 384.933C377.4 386.933 383.4 396.667 389.133 406.267Z" fill="#5D12E6"></path>
<path d="M293.533 240C280.467 244.8 272.333 255.467 271.133 269.333C269.8 283.733 276.333 296.133 289.267 303.733C294.6 306.8 296.867 307.333 306.067 307.333C315.267 307.2 317.533 306.667 322.867 303.6C330.733 298.933 333.933 295.333 337.533 287.333C341.133 279.333 341.4 267.067 338.2 259.733C330.6 242.133 310.867 233.467 293.533 240Z" fill="#5D12E6"></path>
<path d="M483.533 239.333C477.267 241.6 469.667 247.467 465.8 253.333C454.2 270.133 461 294.533 479.667 303.467C494.333 310.267 509.4 307.733 520.333 296.4C526.733 289.733 529.4 283.067 529.533 273.6C529.533 264.4 527.933 258.533 523.4 252C514.867 239.733 497.667 234.267 483.533 239.333Z" fill="#5D12E6"></path>
</g><defs>
<clipPath id="clip0_2_76">
<rect width="800" height="800" fill="white"></rect>
</clipPath>
</defs></svg>